<svg xmlns="http://www.w3.org/2000/svg" xmlns:xlink="http://www.w3.org/1999/xlink" width="1920" zoomAndPan="magnify" viewBox="0 0 1440 374.999991" height="500" preserveAspectRatio="xMidYMid meet" version="1.2"><defs><clipPath id="8539f47fa5"><path d="M 804 15.523438 L 1154 15.523438 L 1154 105 L 804 105 Z M 804 15.523438 "/></clipPath><clipPath id="f23383e7fd"><path d="M 309 244 L 681 244 L 681 363.523438 L 309 363.523438 Z M 309 244 "/></clipPath><clipPath id="98b40bd922"><path d="M 9.804688 24 L 1440 24 L 1440 355 L 9.804688 355 Z M 9.804688 24 "/></clipPath><clipPath id="4c44f71357"><rect x="0" width="1320" y="0" height="335"/></clipPath></defs><g id="19d2791722"><g clip-rule="nonzero" clip-path="url(#8539f47fa5)"><path style=" stroke:none;fill-rule:evenodd;fill:#000000;fill-opacity:0.25;" d="M 804.699219 39.089844 L 804.171875 31.386719 L 837.5625 15.519531 L 839.714844 19.179688 L 849.085938 24.570312 L 858.484375 30.773438 L 863.339844 31.8125 L 894.292969 45.175781 L 902.371094 49.21875 L 913.644531 42.90625 L 924.542969 43.289062 L 930.007812 39.667969 L 936.332031 42.558594 L 960.375 32.503906 L 961.148438 32.464844 L 978.945312 34.46875 L 986.757812 39.9375 L 992.6875 36.164062 L 999.929688 38.707031 L 1011.113281 38.4375 L 1016 40.285156 L 1019.796875 37.820312 L 1026.351562 38.511719 L 1031.960938 34.585938 L 1050.101562 37.472656 L 1059.703125 36.511719 L 1065.710938 39.246094 L 1081.355469 33.390625 L 1090.984375 37.398438 L 1095.355469 33.660156 L 1098.804688 34.46875 L 1110.941406 30.464844 L 1121.0625 30.886719 L 1127.101562 25.996094 L 1129.488281 27.460938 L 1140.359375 24.917969 L 1149.300781 46.640625 L 1153.71875 57.039062 L 1077.535156 91.046875 L 1021.378906 98.671875 L 985.871094 101.210938 L 949.753906 104.253906 L 818.929688 41.980469 Z M 804.699219 39.089844 "/></g><g clip-rule="nonzero" clip-path="url(#f23383e7fd)"><path style=" stroke:none;fill-rule:evenodd;fill:#000000;fill-opacity:0.25;" d="M 321.625 348.160156 L 326.410156 354.167969 L 334.519531 354.167969 L 339.089844 361.367188 L 356.800781 349.96875 L 362.984375 343.5 L 366.441406 345.078125 L 368.957031 341.574219 L 396.257812 349.855469 L 412.53125 345.695312 L 431.167969 344.039062 L 440.578125 338.070312 L 468.507812 342.882812 L 488.621094 340.457031 L 501.152344 347.542969 L 521.359375 344.5 L 532.570312 354.898438 L 542.492188 347.390625 L 561.0625 354.4375 L 571.820312 349.160156 L 574.859375 349.585938 L 589.449219 356.246094 L 603.710938 353.472656 L 618.214844 363.335938 L 630.519531 358.09375 L 656.570312 354.167969 L 680.949219 327.59375 L 646.066406 282.03125 L 583.347656 244.675781 L 352.976562 248.101562 L 309.722656 311.03125 Z M 321.625 348.160156 "/></g><path style=" stroke:none;fill-rule:evenodd;fill:#ff3131;fill-opacity:1;" d="M 804.699219 39.089844 L 804.171875 31.386719 L 833.839844 20.140625 L 835.992188 23.800781 L 845.363281 29.191406 L 854.757812 35.394531 L 859.617188 36.472656 L 890.570312 49.796875 L 898.644531 53.839844 L 909.921875 47.527344 L 920.816406 47.910156 L 926.28125 44.289062 L 932.605469 47.179688 L 956.648438 37.128906 L 957.425781 37.128906 L 975.222656 39.128906 L 983.035156 44.558594 L 988.960938 40.785156 L 996.207031 43.328125 L 1007.390625 43.058594 L 1012.273438 44.90625 L 1016.070312 42.441406 L 1022.625 43.136719 L 1028.238281 39.207031 L 1046.375 42.132812 L 1055.980469 41.171875 L 1061.988281 43.90625 L 1077.632812 38.050781 L 1087.257812 42.058594 L 1091.628906 38.320312 L 1095.082031 39.128906 L 1107.21875 35.085938 L 1117.339844 35.507812 L 1123.378906 30.617188 L 1125.765625 32.082031 L 1140.359375 24.917969 L 1149.300781 46.640625 L 1153.71875 57.039062 L 1077.535156 91.046875 L 1021.378906 98.671875 L 985.871094 101.210938 L 949.753906 104.253906 L 818.929688 41.980469 Z M 804.699219 39.089844 "/><path style=" stroke:none;fill-rule:evenodd;fill:#ff3131;fill-opacity:1;" d="M 321.625 348.160156 L 326.410156 354.167969 L 334.519531 354.167969 L 339.613281 354.320312 L 357.328125 342.921875 L 363.511719 336.488281 L 366.964844 338.03125 L 369.484375 334.5625 L 396.785156 342.804688 L 413.054688 338.644531 L 431.691406 337.027344 L 441.101562 331.019531 L 469.03125 335.875 L 489.144531 333.410156 L 501.675781 340.535156 L 521.882812 337.453125 L 533.097656 347.890625 L 543.019531 340.339844 L 561.589844 347.425781 L 572.347656 342.113281 L 575.382812 342.574219 L 589.972656 349.199219 L 604.234375 346.464844 L 618.742188 356.285156 L 631.042969 351.085938 L 656.570312 354.167969 L 680.949219 327.59375 L 646.066406 282.03125 L 583.347656 244.675781 L 352.976562 248.101562 L 309.722656 311.03125 Z M 321.625 348.160156 "/><g clip-rule="nonzero" clip-path="url(#98b40bd922)"><path style=" stroke:none;fill-rule:evenodd;fill:#004aad;fill-opacity:1;" d="M 1139.75 24.917969 L 1439.808594 24.917969 L 1439.808594 354.167969 L 653.214844 354.167969 L 627.917969 335.410156 L 547.578125 332.40625 L 515.265625 319.351562 L 507.128906 321.46875 L 463.984375 319.003906 L 455.042969 323.664062 L 436.355469 317.734375 L 408.09375 330.289062 L 395.625 325.398438 L 361.867188 328.710938 L 354.71875 321.777344 L 330.375 351.472656 L 326.246094 354.167969 L 9.988281 354.167969 L 9.988281 24.917969 L 813.246094 24.917969 L 813.554688 25.726562 L 842.003906 34.429688 L 854.871094 49.953125 L 865.257812 48.796875 L 895.351562 66.320312 L 924.699219 50.914062 L 936.304688 63.46875 L 959.90625 48.679688 L 1008.691406 56.34375 L 1030.007812 45.292969 L 1072.453125 55.382812 L 1086.734375 45.445312 L 1103.296875 52.917969 Z M 65.320312 249.027344 L 31.617188 249.027344 L 31.617188 282.726562 L 65.320312 282.726562 Z M 65.011719 98.09375 L 31.308594 98.09375 L 31.308594 131.792969 L 65.011719 131.792969 Z M 65.421875 299.324219 L 31.71875 299.324219 L 31.71875 333.023438 L 65.421875 333.023438 Z M 64.90625 47.796875 L 31.207031 47.796875 L 31.207031 81.496094 L 64.90625 81.496094 Z M 65.214844 198.726562 L 31.515625 198.726562 L 31.515625 232.425781 L 65.214844 232.425781 Z M 65.113281 148.390625 L 31.410156 148.390625 L 31.410156 182.089844 L 65.113281 182.089844 Z M 65.113281 148.390625 "/></g><g transform="matrix(1,0,0,1,83,6)"><g clip-path="url(#4c44f71357)"><g style="fill:#000000;fill-opacity:0.4;"><g transform="translate(13.634274, 276.237195)"><path style="stroke:none" d="M 0 -111.046875 L 27.796875 -111.046875 L 27.796875 -166.640625 L 55.59375 -166.640625 L 55.59375 -194.4375 L 83.25 -194.4375 L 83.25 -166.640625 L 111.046875 -166.640625 L 111.046875 -111.046875 L 138.84375 -111.046875 L 138.84375 0 L 111.046875 0 L 111.046875 -55.59375 L 27.796875 -55.59375 L 27.796875 0 L 0 0 Z M 83.25 -166.375 L 55.59375 -166.375 L 55.59375 -110.78125 L 27.796875 -110.78125 L 27.796875 -83.390625 L 111.046875 -83.390625 L 111.046875 -110.78125 L 83.25 -110.78125 Z M 83.25 -166.375 "/></g><g transform="translate(180.273354, 276.237195)"><path style="stroke:none" d="M 0 -111.046875 L -27.796875 -111.046875 L -27.796875 -138.84375 L 0 -138.84375 L 0 -194.4375 L 27.796875 -194.4375 L 27.796875 -138.84375 L 55.453125 -138.84375 L 55.453125 -111.046875 L 27.796875 -111.046875 L 27.796875 -27.796875 L 55.453125 -27.796875 L 55.453125 0 L 0 0 Z M 0 -111.046875 "/></g><g transform="translate(263.525099, 276.237195)"><path style="stroke:none" d="M 0 -111.046875 L -27.796875 -111.046875 L -27.796875 -138.84375 L 0 -138.84375 L 0 -194.4375 L 27.796875 -194.4375 L 27.796875 -138.84375 L 55.453125 -138.84375 L 55.453125 -111.046875 L 27.796875 -111.046875 L 27.796875 -27.796875 L 55.453125 -27.796875 L 55.453125 0 L 0 0 Z M 0 -111.046875 "/></g></g><g style="fill:#000000;fill-opacity:0.4;"><g transform="translate(346.776806, 276.237195)"><path style="stroke:none" d="M 27.796875 -27.796875 L 0 -27.796875 L 0 -111.046875 L 27.796875 -111.046875 L 27.796875 -138.84375 L 83.390625 -138.84375 L 83.390625 -111.046875 L 111.046875 -111.046875 L 111.046875 -55.59375 L 27.796875 -55.59375 L 27.796875 -27.796875 L 111.046875 -27.796875 L 111.046875 0 L 27.796875 0 Z M 83.390625 -83.390625 L 83.390625 -110.78125 L 27.796875 -110.78125 L 27.796875 -83.390625 Z M 83.390625 -83.390625 "/></g><g transform="translate(485.620107, 276.237195)"><path style="stroke:none" d="M 111.046875 -111.046875 L 111.046875 0 L 83.25 0 L 83.25 -111.046875 L 27.796875 -111.046875 L 27.796875 0 L 0 0 L 0 -138.84375 L 83.25 -138.84375 L 83.25 -111.046875 Z M 111.046875 -111.046875 "/></g><g transform="translate(624.463407, 276.237195)"><path style="stroke:none" d="M 27.796875 -138.84375 L 83.25 -138.84375 L 83.25 -194.4375 L 111.046875 -194.4375 L 111.046875 0 L 27.796875 0 L 27.796875 -27.796875 L 0 -27.796875 L 0 -111.046875 L 27.796875 -111.046875 Z M 28.0625 -111.046875 L 28.0625 -27.796875 L 83.25 -27.796875 L 83.25 -111.046875 Z M 28.0625 -111.046875 "/></g></g><g style="fill:#ff5757;fill-opacity:1;"><g transform="translate(1.362144, 263.965064)"><path style="stroke:none" d="M 0 -111.046875 L 27.796875 -111.046875 L 27.796875 -166.640625 L 55.59375 -166.640625 L 55.59375 -194.4375 L 83.25 -194.4375 L 83.25 -166.640625 L 111.046875 -166.640625 L 111.046875 -111.046875 L 138.84375 -111.046875 L 138.84375 0 L 111.046875 0 L 111.046875 -55.59375 L 27.796875 -55.59375 L 27.796875 0 L 0 0 Z M 83.25 -166.375 L 55.59375 -166.375 L 55.59375 -110.78125 L 27.796875 -110.78125 L 27.796875 -83.390625 L 111.046875 -83.390625 L 111.046875 -110.78125 L 83.25 -110.78125 Z M 83.25 -166.375 "/></g><g transform="translate(168.001223, 263.965064)"><path style="stroke:none" d="M 0 -111.046875 L -27.796875 -111.046875 L -27.796875 -138.84375 L 0 -138.84375 L 0 -194.4375 L 27.796875 -194.4375 L 27.796875 -138.84375 L 55.453125 -138.84375 L 55.453125 -111.046875 L 27.796875 -111.046875 L 27.796875 -27.796875 L 55.453125 -27.796875 L 55.453125 0 L 0 0 Z M 0 -111.046875 "/></g><g transform="translate(251.252968, 263.965064)"><path style="stroke:none" d="M 0 -111.046875 L -27.796875 -111.046875 L -27.796875 -138.84375 L 0 -138.84375 L 0 -194.4375 L 27.796875 -194.4375 L 27.796875 -138.84375 L 55.453125 -138.84375 L 55.453125 -111.046875 L 27.796875 -111.046875 L 27.796875 -27.796875 L 55.453125 -27.796875 L 55.453125 0 L 0 0 Z M 0 -111.046875 "/></g></g><g style="fill:#ff5757;fill-opacity:1;"><g transform="translate(334.504675, 263.965064)"><path style="stroke:none" d="M 27.796875 -27.796875 L 0 -27.796875 L 0 -111.046875 L 27.796875 -111.046875 L 27.796875 -138.84375 L 83.390625 -138.84375 L 83.390625 -111.046875 L 111.046875 -111.046875 L 111.046875 -55.59375 L 27.796875 -55.59375 L 27.796875 -27.796875 L 111.046875 -27.796875 L 111.046875 0 L 27.796875 0 Z M 83.390625 -83.390625 L 83.390625 -110.78125 L 27.796875 -110.78125 L 27.796875 -83.390625 Z M 83.390625 -83.390625 "/></g><g transform="translate(473.347976, 263.965064)"><path style="stroke:none" d="M 111.046875 -111.046875 L 111.046875 0 L 83.25 0 L 83.25 -111.046875 L 27.796875 -111.046875 L 27.796875 0 L 0 0 L 0 -138.84375 L 83.25 -138.84375 L 83.25 -111.046875 Z M 111.046875 -111.046875 "/></g><g transform="translate(612.191277, 263.965064)"><path style="stroke:none" d="M 27.796875 -138.84375 L 83.25 -138.84375 L 83.25 -194.4375 L 111.046875 -194.4375 L 111.046875 0 L 27.796875 0 L 27.796875 -27.796875 L 0 -27.796875 L 0 -111.046875 L 27.796875 -111.046875 Z M 28.0625 -111.046875 L 28.0625 -27.796875 L 83.25 -27.796875 L 83.25 -111.046875 Z M 28.0625 -111.046875 "/></g></g><g style="fill:#000000;fill-opacity:0.4;"><g transform="translate(763.32075, 276.237195)"><path style="stroke:none" d=""/></g></g><g style="fill:#ff5757;fill-opacity:1;"><g transform="translate(751.04862, 263.965064)"><path style="stroke:none" d=""/></g></g><g style="fill:#000000;fill-opacity:0.4;"><g transform="translate(763.32075, 276.237195)"><path style="stroke:none" d="M 27.796875 -27.796875 L 111.046875 -27.796875 L 111.046875 0 L 0 0 L 0 -194.4375 L 111.046875 -194.4375 L 111.046875 -166.640625 L 27.796875 -166.640625 L 27.796875 -111.046875 L 111.046875 -111.046875 L 111.046875 -83.25 L 27.796875 -83.25 Z M 27.796875 -27.796875 "/></g><g transform="translate(902.164051, 276.237195)"><path style="stroke:none" d="M 27.796875 -83.390625 L 83.25 -83.390625 L 83.25 -111.046875 L 27.796875 -111.046875 L 27.796875 -138.84375 L 83.25 -138.84375 L 83.25 -111.046875 L 111.046875 -111.046875 L 111.046875 0 L 27.796875 0 L 27.796875 -27.796875 L 0 -27.796875 L 0 -55.59375 L 27.796875 -55.59375 Z M 28.0625 -55.59375 L 28.0625 -27.796875 L 83.25 -27.796875 L 83.25 -55.59375 Z M 27.796875 -83.515625 L 0 -83.515625 L 0 -111.046875 L 27.796875 -111.046875 Z M 27.796875 -83.515625 "/></g><g transform="translate(1041.007351, 276.237195)"><path style="stroke:none" d="M 0 -27.796875 L 83.25 -27.796875 L 83.25 0 L 0 0 Z M 83.390625 -55.59375 L 27.796875 -55.59375 L 27.796875 -83.390625 L 0 -83.390625 L 0 -111.046875 L 27.796875 -111.046875 L 27.796875 -83.390625 L 83.390625 -83.390625 Z M 27.796875 -111.046875 L 27.796875 -138.84375 L 111.046875 -138.84375 L 111.046875 -111.046875 Z M 83.25 -55.59375 L 111.046875 -55.59375 L 111.046875 -27.796875 L 83.25 -27.796875 Z M 83.25 -55.59375 "/></g><g transform="translate(1179.850652, 276.237195)"><path style="stroke:none" d="M 27.796875 -27.796875 L 0 -27.796875 L 0 -111.046875 L 27.796875 -111.046875 L 27.796875 -138.84375 L 83.390625 -138.84375 L 83.390625 -111.046875 L 111.046875 -111.046875 L 111.046875 -55.59375 L 27.796875 -55.59375 L 27.796875 -27.796875 L 111.046875 -27.796875 L 111.046875 0 L 27.796875 0 Z M 83.390625 -83.390625 L 83.390625 -110.78125 L 27.796875 -110.78125 L 27.796875 -83.390625 Z M 83.390625 -83.390625 "/></g></g><g style="fill:#91a4ff;fill-opacity:1;"><g transform="translate(751.04862, 263.965064)"><path style="stroke:none" d="M 27.796875 -27.796875 L 111.046875 -27.796875 L 111.046875 0 L 0 0 L 0 -194.4375 L 111.046875 -194.4375 L 111.046875 -166.640625 L 27.796875 -166.640625 L 27.796875 -111.046875 L 111.046875 -111.046875 L 111.046875 -83.25 L 27.796875 -83.25 Z M 27.796875 -27.796875 "/></g><g transform="translate(889.89192, 263.965064)"><path style="stroke:none" d="M 27.796875 -83.390625 L 83.25 -83.390625 L 83.25 -111.046875 L 27.796875 -111.046875 L 27.796875 -138.84375 L 83.25 -138.84375 L 83.25 -111.046875 L 111.046875 -111.046875 L 111.046875 0 L 27.796875 0 L 27.796875 -27.796875 L 0 -27.796875 L 0 -55.59375 L 27.796875 -55.59375 Z M 28.0625 -55.59375 L 28.0625 -27.796875 L 83.25 -27.796875 L 83.25 -55.59375 Z M 27.796875 -83.515625 L 0 -83.515625 L 0 -111.046875 L 27.796875 -111.046875 Z M 27.796875 -83.515625 "/></g><g transform="translate(1028.735221, 263.965064)"><path style="stroke:none" d="M 0 -27.796875 L 83.25 -27.796875 L 83.25 0 L 0 0 Z M 83.390625 -55.59375 L 27.796875 -55.59375 L 27.796875 -83.390625 L 0 -83.390625 L 0 -111.046875 L 27.796875 -111.046875 L 27.796875 -83.390625 L 83.390625 -83.390625 Z M 27.796875 -111.046875 L 27.796875 -138.84375 L 111.046875 -138.84375 L 111.046875 -111.046875 Z M 83.25 -55.59375 L 111.046875 -55.59375 L 111.046875 -27.796875 L 83.25 -27.796875 Z M 83.25 -55.59375 "/></g><g transform="translate(1167.578521, 263.965064)"><path style="stroke:none" d="M 27.796875 -27.796875 L 0 -27.796875 L 0 -111.046875 L 27.796875 -111.046875 L 27.796875 -138.84375 L 83.390625 -138.84375 L 83.390625 -111.046875 L 111.046875 -111.046875 L 111.046875 -55.59375 L 27.796875 -55.59375 L 27.796875 -27.796875 L 111.046875 -27.796875 L 111.046875 0 L 27.796875 0 Z M 83.390625 -83.390625 L 83.390625 -110.78125 L 27.796875 -110.78125 L 27.796875 -83.390625 Z M 83.390625 -83.390625 "/></g></g><g style="fill:#000000;fill-opacity:0.4;"><g transform="translate(1318.703053, 276.237195)"><path style="stroke:none" d=""/></g></g><g style="fill:#91a4ff;fill-opacity:1;"><g transform="translate(1306.430923, 263.965064)"><path style="stroke:none" d=""/></g></g></g></g></g></svg>