<svg xmlns="http://www.w3.org/2000/svg" xmlns:xlink="http://www.w3.org/1999/xlink" width="600" zoomAndPan="magnify" viewBox="0 0 450 449.999984" height="600" preserveAspectRatio="xMidYMid meet" version="1.2"><defs><clipPath id="9605771a9d"><path d="M 0.519531 0 L 264 0 L 264 430 L 0.519531 430 Z M 0.519531 0 "/></clipPath><clipPath id="f91499a4ec"><rect x="0" width="264" y="0" height="430"/></clipPath><clipPath id="02d1f8b691"><path d="M 0.199219 101 L 163 101 L 163 385 L 0.199219 385 Z M 0.199219 101 "/></clipPath><clipPath id="823b6d3c62"><rect x="0" width="197" y="0" height="436"/></clipPath><clipPath id="6afaf71c88"><rect x="0" width="433" y="0" height="450"/></clipPath></defs><g id="314a135e83"><g transform="matrix(1,0,0,1,17,0)"><g clip-path="url(#6afaf71c88)"><g clip-rule="nonzero" clip-path="url(#9605771a9d)"><g transform="matrix(1,0,0,1,-0.000000000000003553,0)"><g id="b9c141a47e" clip-path="url(#f91499a4ec)"><g style="fill:#000000;fill-opacity:0.4;"><g transform="translate(19.24499, 345.130409)"><path style="stroke:none" d="M 0 -161.734375 L 40.484375 -161.734375 L 40.484375 -242.703125 L 80.96875 -242.703125 L 80.96875 -283.1875 L 121.25 -283.1875 L 121.25 -242.703125 L 161.734375 -242.703125 L 161.734375 -161.734375 L 202.21875 -161.734375 L 202.21875 0 L 161.734375 0 L 161.734375 -80.96875 L 40.484375 -80.96875 L 40.484375 0 L 0 0 Z M 121.25 -242.3125 L 80.96875 -242.3125 L 80.96875 -161.34375 L 40.484375 -161.34375 L 40.484375 -121.453125 L 161.734375 -121.453125 L 161.734375 -161.34375 L 121.25 -161.34375 Z M 121.25 -242.3125 "/></g></g><g style="fill:#ff5757;fill-opacity:1;"><g transform="translate(1.370953, 327.256365)"><path style="stroke:none" d="M 0 -161.734375 L 40.484375 -161.734375 L 40.484375 -242.703125 L 80.96875 -242.703125 L 80.96875 -283.1875 L 121.25 -283.1875 L 121.25 -242.703125 L 161.734375 -242.703125 L 161.734375 -161.734375 L 202.21875 -161.734375 L 202.21875 0 L 161.734375 0 L 161.734375 -80.96875 L 40.484375 -80.96875 L 40.484375 0 L 0 0 Z M 121.25 -242.3125 L 80.96875 -242.3125 L 80.96875 -161.34375 L 40.484375 -161.34375 L 40.484375 -121.453125 L 161.734375 -121.453125 L 161.734375 -161.34375 L 121.25 -161.34375 Z M 121.25 -242.3125 "/></g></g><g style="fill:#000000;fill-opacity:0.4;"><g transform="translate(261.960602, 345.130409)"><path style="stroke:none" d=""/></g></g><g style="fill:#ff5757;fill-opacity:1;"><g transform="translate(244.086565, 327.256365)"><path style="stroke:none" d=""/></g></g></g></g></g><g transform="matrix(1,0,0,1,236,14)"><g id="af7f6b8a83" clip-path="url(#823b6d3c62)"><g style="fill:#000000;fill-opacity:0.4;"><g transform="translate(18.814714, 402.684744)"><path style="stroke:none" d="M 40.484375 -40.484375 L 161.734375 -40.484375 L 161.734375 0 L 0 0 L 0 -283.1875 L 161.734375 -283.1875 L 161.734375 -242.703125 L 40.484375 -242.703125 L 40.484375 -161.734375 L 161.734375 -161.734375 L 161.734375 -121.25 L 40.484375 -121.25 Z M 40.484375 -40.484375 "/></g></g><g clip-rule="nonzero" clip-path="url(#02d1f8b691)"><g style="fill:#5170ff;fill-opacity:1;"><g transform="translate(0.940691, 384.810724)"><path style="stroke:none" d="M 40.484375 -40.484375 L 161.734375 -40.484375 L 161.734375 0 L 0 0 L 0 -283.1875 L 161.734375 -283.1875 L 161.734375 -242.703125 L 40.484375 -242.703125 L 40.484375 -161.734375 L 161.734375 -161.734375 L 161.734375 -121.25 L 40.484375 -121.25 Z M 40.484375 -40.484375 "/></g></g></g></g></g></g></g></g></svg>